 http://www.imdb.com/title/tt2101341/



In New York City, a crime lord's right-hand man is seduced by a woman seeking retribution. 



Director:
 Niels Arden Oplev 

Writer:
 J.H. Wyman 

Stars:
 Colin Farrell, Noomi Rapace, Terrence Howard 

Genres:
  Action |  Crime |  Drama |  Thriller 

Country:
 USA 




Dead Man Down 2013 CAM READNFO XViD - JUSTiCE


 SOURCE : Dead.Man.Down.CAM.MD.READ.NFO.German.XviD-PsO
         Hustle Hard Audio


 Video and audio both cleaned and given justice.
 Check sample and see.....

 Right from what i can tell the grp PSO have made a hybird from their own 
 cam and the cam by hustlehard....to make a complete video.
 Bad news we don't have any complete audio lol ...so just syncd the hustlehard
 cam audio to the video and had to cut the parts with no audio.

 Audio as been cleaned and remastered in adobe but left the video as it was incomplete
 and not worth messing with.

 Video is shocking in parts with chair shots but other times really nice ....so you have 
 been warned before you start moaning.
 Only did this because i was bored and only took 15mins to do so ...


 Video
 ID                               : 0
 Format                           : MPEG-4 Visual
 Format profile                   : Advanced Simple@L5
 Format settings, BVOP            : 2
 Format settings, QPel            : No
 Format settings, GMC             : No warppoints
 Format settings, Matrix          : Default (H.263)
 Codec ID                         : XVID
 Codec ID/Hint                    : XviD
 Duration                         : 1h 33mn
 Bit rate                         : 1 838 Kbps
 Width                            : 720 pixels
 Height                           : 304 pixels
 Display aspect ratio             : 2.35:1
 Frame rate                       : 25.000 fps
 Color space                      : YUV
 Chroma subsampling               : 4:2:0
 Bit depth                        : 8 bits
 Scan type                        : Progressive
 Compression mode                 : Lossy
 Bits/(Pixel*Frame)               : 0.336
 Stream size                      : 1.21 GiB (93%)
 Writing library                  : XviD 64

 Audio
 ID                               : 1
 Format                           : MPEG Audio
 Format version                   : Version 1
 Format profile                   : Layer 3
 Mode                             : Joint stereo
 Mode extension                   : MS Stereo
 Codec ID                         : 55
 Codec ID/Hint                    : MP3
 Duration                         : 1h 33mn
 Bit rate mode                    : Constant
 Bit rate                         : 128 Kbps
 Channel(s)                       : 2 channels
 Sampling rate                    : 48.0 KHz
 Compression mode                 : Lossy
 Stream size                      : 85.9 MiB (6%)
 Alignment                        : Split accross interleaves
 Interleave, duration             : 40 ms (1.00 video frame)
 Interleave, preload duration     : 500 ms




    	http://addpix.net/viewer.php?file=81376321742072824567.jpg
    	http://addpix.net/viewer.php?file=95384342036008613561.jpg
    	http://addpix.net/viewer.php?file=77265111866854156797.jpg
    	http://addpix.net/viewer.php?file=58663627929345680845.jpg
    	http://addpix.net/viewer.php?file=65411516834542838799.jpg
    	http://addpix.net/viewer.php?file=32593517317512262568.jpg